<?xml version="1.0" encoding="UTF-8" standalone="no"?>
<svg
   xmlns:dc="http://purl.org/dc/elements/1.1/"
   xmlns:cc="http://creativecommons.org/ns#"
   xmlns:rdf="http://www.w3.org/1999/02/22-rdf-syntax-ns#"
   xmlns:svg="http://www.w3.org/2000/svg"
   xmlns="http://www.w3.org/2000/svg"
   xmlns:sodipodi="http://sodipodi.sourceforge.net/DTD/sodipodi-0.dtd"
   xmlns:inkscape="http://www.inkscape.org/namespaces/inkscape"
   width="54mm"
   height="54.000008mm"
   viewBox="0 0 54 54.000007"
   version="1.1"
   id="svg8"
   inkscape:version="1.0.1 (3bc2e813f5, 2020-09-07)"
   sodipodi:docname="Fb-logo.svg">
  <defs
     id="defs2" />
  <sodipodi:namedview
     id="base"
     pagecolor="#ffffff"
     bordercolor="#666666"
     borderopacity="1.0"
     inkscape:pageopacity="0.0"
     inkscape:pageshadow="2"
     inkscape:zoom="2.9086207"
     inkscape:cx="108.66579"
     inkscape:cy="135.76162"
     inkscape:document-units="mm"
     inkscape:current-layer="layer1"
     inkscape:document-rotation="0"
     showgrid="false"
     inkscape:window-width="2560"
     inkscape:window-height="1377"
     inkscape:window-x="-8"
     inkscape:window-y="-8"
     inkscape:window-maximized="1" />
  <metadata
     id="metadata5">
    <rdf:RDF>
      <cc:Work
         rdf:about="">
        <dc:format>image/svg+xml</dc:format>
        <dc:type
           rdf:resource="http://purl.org/dc/dcmitype/StillImage" />
        <dc:title></dc:title>
      </cc:Work>
    </rdf:RDF>
  </metadata>
  <g
     inkscape:label="Layer 1"
     inkscape:groupmode="layer"
     id="layer1"
     transform="translate(-10.99304,-8.7936919)">
    <path
       style="fill:#3a569b;stroke-width:0.263574"
       d="M 10.99304,62.793692 V 35.761753 8.7936919 H 38.512629 64.99304 V 35.947203 62.793692 H 56.717126 49.02035 V 52.686601 41.914334 h 3.568308 c 3.487204,0 3.571119,-0.01339 3.692459,-0.590535 0.151142,-0.718818 0.944698,-6.794164 0.944698,-7.23245 0,-0.229296 -1.100142,-0.313306 -4.102737,-0.313306 H 49.02035 l 0.01491,-3.346382 c 0.02501,-5.608759 0.467032,-6.101127 5.477432,-6.101812 l 2.977795,-4.07e-4 v -3.779261 -3.779262 l -3.341294,-0.191084 c -5.381453,-0.307782 -8.788545,0.597092 -10.932617,2.903532 -2.227746,2.396453 -2.91954,4.894811 -2.926493,10.568812 l -0.005,3.754264 -3.57379,-0.07985 -3.57379,-0.07985 5.3e-4,4.133765 5.3e-4,4.133766 h 3.57335 3.57334 v 10.760909 10.118518 h -13.56548 z"
       id="path847"
       sodipodi:nodetypes="cccccccccccscssccsccccscccccccccccc" />
  </g>
</svg>
