<?xml version="1.0" encoding="UTF-8" standalone="no"?>
<svg
   xmlns:dc="http://purl.org/dc/elements/1.1/"
   xmlns:cc="http://creativecommons.org/ns#"
   xmlns:rdf="http://www.w3.org/1999/02/22-rdf-syntax-ns#"
   xmlns:svg="http://www.w3.org/2000/svg"
   xmlns="http://www.w3.org/2000/svg"
   xmlns:sodipodi="http://sodipodi.sourceforge.net/DTD/sodipodi-0.dtd"
   xmlns:inkscape="http://www.inkscape.org/namespaces/inkscape"
   width="54mm"
   height="54mm"
   viewBox="0 0 54 53.999999"
   version="1.1"
   id="svg8"
   inkscape:version="1.0.1 (3bc2e813f5, 2020-09-07)"
   sodipodi:docname="LI-logo.svg">
  <defs
     id="defs2" />
  <sodipodi:namedview
     id="base"
     pagecolor="#ffffff"
     bordercolor="#666666"
     borderopacity="1.0"
     inkscape:pageopacity="0.0"
     inkscape:pageshadow="2"
     inkscape:zoom="2.9086207"
     inkscape:cx="105.76244"
     inkscape:cy="129.79664"
     inkscape:document-units="mm"
     inkscape:current-layer="layer1"
     inkscape:document-rotation="0"
     showgrid="false"
     inkscape:window-width="2560"
     inkscape:window-height="1377"
     inkscape:window-x="-8"
     inkscape:window-y="-8"
     inkscape:window-maximized="1" />
  <metadata
     id="metadata5">
    <rdf:RDF>
      <cc:Work
         rdf:about="">
        <dc:format>image/svg+xml</dc:format>
        <dc:type
           rdf:resource="http://purl.org/dc/dcmitype/StillImage" />
        <dc:title></dc:title>
      </cc:Work>
    </rdf:RDF>
  </metadata>
  <g
     inkscape:label="Layer 1"
     inkscape:groupmode="layer"
     id="layer1"
     transform="translate(-11.761219,-10.371926)">
    <path
       style="fill:#215881;stroke-width:0.0913192"
       d="M 11.761219,10.371926 H 39.713395 65.761219 V 36.914342 64.371926 H 38.012778 11.761219 Z m 16.58319,32.730565 V 29.751684 H 24.26875 20.193093 V 43.102491 56.4533 h 4.075657 4.075659 z m 13.334999,5.501454 c 0.02859,-7.792994 0.03025,-7.854643 0.230763,-8.585951 0.678767,-2.475581 2.115853,-3.631175 4.521175,-3.635583 2.208045,-0.0041 3.512589,0.990122 4.045682,3.083136 0.290527,1.140663 0.327303,2.216722 0.328045,9.598771 l 7.42e-4,7.388982 h 4.07566 4.075658 l -9.05e-4,-7.849355 c -0.001,-9.408724 -0.07394,-10.805605 -0.685714,-13.14364 -0.304072,-1.162083 -1.072124,-2.742628 -1.708101,-3.515037 -1.628591,-1.977958 -4.401751,-2.97197 -7.839712,-2.810067 -2.941241,0.138511 -5.348163,1.402033 -6.872959,3.607982 l -0.508511,0.735673 -0.02452,-1.863586 -0.02452,-1.863586 H 37.399547 33.506905 V 43.102491 56.4533 h 4.071849 4.071849 z M 25.184733,25.975229 c 0.826037,-0.15827 1.750999,-0.667189 2.386117,-1.312857 1.878482,-1.909684 1.864348,-4.897756 -0.03211,-6.788304 -1.844749,-1.838998 -4.629759,-1.856115 -6.523386,-0.04009 -0.987671,0.947194 -1.456252,2.056293 -1.456252,3.44685 0,1.388029 0.468874,2.499938 1.451599,3.44239 1.17216,1.124121 2.602426,1.553134 4.174033,1.252014 z M 65.761219,36.611237 V 22.554302 50.72911 Z"
       id="path863"
       sodipodi:nodetypes="cccccccccccccccccsccssccccsssscccccccccscssssscccccc" />
  </g>
</svg>
